# xmcd
#
# Track frame offsets: 
#        300
#        27174
#        49521
#        73863
#        92083
#        113092
#        133544
#        152376
#        173276
#        192582
#        217415
#        245058
#        259904
#
# Disc length: 3686 seconds
#
# Revision: 0
# Processed by: cddbd v1.5.2PL0 Copyright (c) Steve Scherf et al.
# Submitted via: ExactAudioCopy v1.0b3
#
DISCID=b80e620d
DTITLE=Luther "Badman" Keith - Thunder In My Blues
DYEAR=2003
DGENRE=Blues
TTITLE0=Thunder In My Blues
TTITLE1=Six Figure Salary
TTITLE2=Fevers And Chills
TTITLE3=Blues Gonna Fall
TTITLE4=The Last Bluesman
TTITLE5=Rocks On mars
TTITLE6=Nose Wide Open
TTITLE7=No Shame In My Game
TTITLE8=Tatoo Baby
TTITLE9=Sleeping With The Devil
TTITLE10=Gonna Give Up Drinkin'
TTITLE11=What's The Use
TTITLE12=Home Alone
EXTD=
EXTT0=
EXTT1=
EXTT2=
EXTT3=
EXTT4=
EXTT5=
EXTT6=
EXTT7=
EXTT8=
EXTT9=
EXTT10=
EXTT11=
EXTT12=
PLAYORDER=
